<svg width="512" height="96" viewBox="0 0 512 96" fill="none" xmlns="http://www.w3.org/2000/svg">
<path d="M80 0H16C11.7565 0 7.68687 1.68571 4.68629 4.68629C1.68571 7.68688 0 11.7565 0 16L0 80C0 84.2435 1.68571 88.3131 4.68629 91.3137C7.68687 94.3143 11.7565 96 16 96H80C84.2435 96 88.3131 94.3143 91.3137 91.3137C94.3143 88.3131 96 84.2435 96 80V16C96 11.7565 94.3143 7.68688 91.3137 4.68629C88.3131 1.68571 84.2435 0 80 0ZM496 16H176C171.757 16 167.687 17.6857 164.686 20.6863C161.686 23.6869 160 27.7565 160 32V64C160 68.2435 161.686 72.3131 164.686 75.3137C167.687 78.3143 171.757 80 176 80H496C500.243 80 504.313 78.3143 507.314 75.3137C510.314 72.3131 512 68.2435 512 64V32C512 27.7565 510.314 23.6869 507.314 20.6863C504.313 17.6857 500.243 16 496 16Z" fill="white"/>
</svg>
